# xmcd
#
# Track frame offsets: 
#        150
#        16900
#        33375
#        55140
#
# Disc length: 955 seconds
#
# Revision: 1
# Processed by: cddbd v1.5.2PL0 Copyright (c) Steve Scherf et al.
# Submitted via: ExactAudioCopyFreeDBPlugin 1.0
#
DISCID=2703b904
DTITLE=Snoop Doggy Dogg - Gin and Juice [CDS)
DYEAR=1994
DGENRE=Rap
TTITLE0=Gin And Juice (Radio Version)
TTITLE1=Gin And Juice (Radio Version) (No Indo)
TTITLE2=Gin And Juice (Laid Back Mix)
TTITLE3=Gin And Juice (Laid Back Radio Mix)
EXTD=
EXTT0=
EXTT1=
EXTT2=
EXTT3=
PLAYORDER=
